<mxfile host="app.diagrams.net" modified="2023-10-21T12:40:43.437Z" agent="Mozilla/5.0 (X11; Linux x86_64) AppleWebKit/537.36 (KHTML, like Gecko) Chrome/118.0.0.0 Safari/537.36" version="22.0.6" etag="fLnBVwg0svjOW_4Fm83i" type="github">
  <diagram name="Page-1" id="eoBrv_t0rzmpOHxO-e9C">
    <mxGraphModel>
      <root>
        <mxCell id="0" />
        <mxCell id="1" parent="0" />
      </root>
    </mxGraphModel>
  </diagram>
</mxfile>
